<svg xmlns="http://www.w3.org/2000/svg" width="470" height="271.15" viewBox="0 0 470 271.15"><defs><clipPath id="b"><rect width="470" height="271.15"/></clipPath></defs><g id="a" clip-path="url(#b)"><rect width="470" height="271.15" fill="#fff"/><g transform="translate(-21 -120.42)"><rect width="470" height="271.15" rx="36.154" transform="translate(21 120.42)" fill="#678bc8"/><rect width="470" height="271.15" rx="36.154" transform="translate(21 120.42)" fill="#fff" opacity="0.8"/><path d="M62.576,153.54c-3,0-5.422,2.014-5.422,4.518v27.115c0,2.5,2.417,4.52,5.422,4.52h43.385c3,0,5.424-2.016,5.424-4.52V158.058c0-2.5-2.419-4.518-5.424-4.518Zm71.4,0a4.511,4.511,0,0,0-4.52,4.518v27.115a4.564,4.564,0,0,0,.092.912c.019.092.058.174.082.264a3.795,3.795,0,0,0,.6,1.354c.073.109.168.2.25.3a4.13,4.13,0,0,0,3.5,1.687H161.1a4.51,4.51,0,0,0,4.52-4.52V158.058a4.508,4.508,0,0,0-4.52-4.518Zm54.23,0a4.508,4.508,0,0,0-4.52,4.518v27.115a4.51,4.51,0,0,0,4.52,4.52h27.115a4.51,4.51,0,0,0,4.52-4.52V158.058a4.508,4.508,0,0,0-4.52-4.518Zm54.23,0a4.507,4.507,0,0,0-4.518,4.518v27.115a4.508,4.508,0,0,0,4.518,4.52h27.117a4.508,4.508,0,0,0,4.518-4.52V158.058a4.507,4.507,0,0,0-4.518-4.518Zm54.232,0a4.508,4.508,0,0,0-4.52,4.518v27.115a4.51,4.51,0,0,0,4.52,4.52h27.115a4.51,4.51,0,0,0,4.52-4.52V158.058a4.508,4.508,0,0,0-4.52-4.518Zm54.23,0a4.508,4.508,0,0,0-4.52,4.518v27.115a4.51,4.51,0,0,0,4.52,4.52h27.115a4.51,4.51,0,0,0,4.52-4.52V158.058a4.508,4.508,0,0,0-4.52-4.518Zm54.23,0a4.508,4.508,0,0,0-4.52,4.518v27.115a4.51,4.51,0,0,0,4.52,4.52h13.557v49.713a4.508,4.508,0,0,0,4.52,4.518h27.115a4.508,4.508,0,0,0,4.52-4.518V158.057a4.508,4.508,0,0,0-4.52-4.518H405.132ZM61.672,207.77a4.51,4.51,0,0,0-4.52,4.52V239.4a4.508,4.508,0,0,0,4.52,4.518H124.94a4.508,4.508,0,0,0,4.52-4.518V212.289a4.51,4.51,0,0,0-4.52-4.52Zm90.385,0a4.51,4.51,0,0,0-4.52,4.52V239.4a4.508,4.508,0,0,0,4.52,4.518h27.115a4.507,4.507,0,0,0,4.518-4.518V212.289a4.508,4.508,0,0,0-4.518-4.52Zm54.23,0a4.51,4.51,0,0,0-4.52,4.52V239.4a4.508,4.508,0,0,0,4.52,4.518H233.4a4.508,4.508,0,0,0,4.52-4.518V212.289a4.51,4.51,0,0,0-4.52-4.52Zm54.23,0a4.51,4.51,0,0,0-4.52,4.52V239.4a4.508,4.508,0,0,0,4.52,4.518h27.115a4.508,4.508,0,0,0,4.52-4.518V212.289a4.51,4.51,0,0,0-4.52-4.52Zm54.23,0a4.51,4.51,0,0,0-4.52,4.52V239.4a4.508,4.508,0,0,0,4.52,4.518h27.115a4.508,4.508,0,0,0,4.52-4.518V212.289a4.51,4.51,0,0,0-4.52-4.52Zm54.23,0a4.51,4.51,0,0,0-4.52,4.52V239.4a4.508,4.508,0,0,0,4.52,4.518h27.115a4.508,4.508,0,0,0,4.52-4.518V212.289a4.51,4.51,0,0,0-4.52-4.52ZM61.667,262a4.51,4.51,0,0,0-4.52,4.52v27.115a4.51,4.51,0,0,0,4.52,4.52H88.782a4.51,4.51,0,0,0,4.52-4.52V266.52a4.51,4.51,0,0,0-4.52-4.52Zm54.23,0a4.51,4.51,0,0,0-4.52,4.52v27.115a4.51,4.51,0,0,0,4.52,4.52h27.115a4.51,4.51,0,0,0,4.52-4.52V266.52a4.51,4.51,0,0,0-4.52-4.52Zm54.23,0a4.51,4.51,0,0,0-4.52,4.52v27.115a4.131,4.131,0,0,0,1.688,3.5c.1.082.192.177.3.25h0c.084.057.18.1.268.146a4.467,4.467,0,0,0,1.148.469c.068.017.13.048.2.063h0a4.578,4.578,0,0,0,.912.092h27.115a4.564,4.564,0,0,0,.912-.092,4.509,4.509,0,0,0,3.607-4.428V266.52a4.564,4.564,0,0,0-.092-.912v0a4.494,4.494,0,0,0-.262-.848v0a4.5,4.5,0,0,0-.416-.766v0a4.511,4.511,0,0,0-3.75-1.988Zm54.23,0a4.51,4.51,0,0,0-4.52,4.52v27.115a4.51,4.51,0,0,0,4.52,4.52h27.115a4.51,4.51,0,0,0,4.52-4.52V266.52a4.51,4.51,0,0,0-4.52-4.52Zm54.23,0a4.51,4.51,0,0,0-4.52,4.52v27.115a4.51,4.51,0,0,0,4.52,4.52H305.7a4.51,4.51,0,0,0,4.52-4.52V266.52A4.51,4.51,0,0,0,305.7,262Zm54.23,0a4.508,4.508,0,0,0-4.518,4.52v27.115a4.508,4.508,0,0,0,4.518,4.52h27.115a4.51,4.51,0,0,0,4.52-4.52V266.52a4.51,4.51,0,0,0-4.52-4.52Zm54.232,0a4.51,4.51,0,0,0-4.52,4.52v27.115a4.51,4.51,0,0,0,4.52,4.52h63.268a4.51,4.51,0,0,0,4.52-4.52V266.52a4.51,4.51,0,0,0-4.52-4.52ZM61.669,316.23a4.51,4.51,0,0,0-4.52,4.52v27.115a4.51,4.51,0,0,0,4.52,4.52H88.784a4.51,4.51,0,0,0,4.52-4.52V320.75a4.51,4.51,0,0,0-4.52-4.52Zm63.268,0a4.508,4.508,0,0,0-4.518,4.52v27.115a4.508,4.508,0,0,0,4.518,4.52h207.88a4.51,4.51,0,0,0,4.52-4.52V320.75a4.51,4.51,0,0,0-4.52-4.52Zm244.04,0a4.51,4.51,0,0,0-4.52,4.52v27.115a4.51,4.51,0,0,0,4.52,4.52h27.115a4.51,4.51,0,0,0,4.52-4.52V320.75a4.51,4.51,0,0,0-4.52-4.52Zm54.23,0a4.51,4.51,0,0,0-4.52,4.52v27.115a4.51,4.51,0,0,0,4.52,4.52h27.115a4.51,4.51,0,0,0,4.52-4.52V320.75a4.51,4.51,0,0,0-4.52-4.52Z" opacity="0.2"/><path d="M133.98,147.54a4.511,4.511,0,0,0-4.52,4.518v27.115a4.564,4.564,0,0,0,.092.912c.019.092.058.174.082.264a3.795,3.795,0,0,0,.6,1.354c.073.109.168.2.25.3a4.13,4.13,0,0,0,3.5,1.687H161.1a4.51,4.51,0,0,0,4.52-4.52V152.058a4.508,4.508,0,0,0-4.52-4.518Zm54.23,0a4.508,4.508,0,0,0-4.52,4.518v27.115a4.51,4.51,0,0,0,4.52,4.52h27.115a4.51,4.51,0,0,0,4.52-4.52V152.058a4.508,4.508,0,0,0-4.52-4.518Zm54.23,0a4.507,4.507,0,0,0-4.518,4.518v27.115a4.508,4.508,0,0,0,4.518,4.52h27.117a4.508,4.508,0,0,0,4.518-4.52V152.058a4.507,4.507,0,0,0-4.518-4.518Zm54.232,0a4.508,4.508,0,0,0-4.52,4.518v27.115a4.51,4.51,0,0,0,4.52,4.52h27.115a4.51,4.51,0,0,0,4.52-4.52V152.058a4.508,4.508,0,0,0-4.52-4.518Zm54.23,0a4.508,4.508,0,0,0-4.52,4.518v27.115a4.51,4.51,0,0,0,4.52,4.52h27.115a4.51,4.51,0,0,0,4.52-4.52V152.058a4.508,4.508,0,0,0-4.52-4.518Zm-198.85,54.23a4.51,4.51,0,0,0-4.52,4.52V233.4a4.508,4.508,0,0,0,4.52,4.518h27.115a4.507,4.507,0,0,0,4.518-4.518V206.289a4.508,4.508,0,0,0-4.518-4.52Zm54.23,0a4.51,4.51,0,0,0-4.52,4.52V233.4a4.508,4.508,0,0,0,4.52,4.518H233.4a4.508,4.508,0,0,0,4.52-4.518V206.289a4.51,4.51,0,0,0-4.52-4.52Zm54.23,0a4.51,4.51,0,0,0-4.52,4.52V233.4a4.508,4.508,0,0,0,4.52,4.518h27.115a4.508,4.508,0,0,0,4.52-4.518V206.289a4.51,4.51,0,0,0-4.52-4.52Zm54.23,0a4.51,4.51,0,0,0-4.52,4.52V233.4a4.508,4.508,0,0,0,4.52,4.518h27.115a4.508,4.508,0,0,0,4.52-4.518V206.289a4.51,4.51,0,0,0-4.52-4.52Zm54.23,0a4.51,4.51,0,0,0-4.52,4.52V233.4a4.508,4.508,0,0,0,4.52,4.518h27.115a4.508,4.508,0,0,0,4.52-4.518V206.289a4.51,4.51,0,0,0-4.52-4.52ZM61.662,256a4.51,4.51,0,0,0-4.52,4.519v27.115a4.51,4.51,0,0,0,4.52,4.52H88.777a4.51,4.51,0,0,0,4.52-4.52V260.519a4.51,4.51,0,0,0-4.52-4.52Zm54.23,0a4.51,4.51,0,0,0-4.52,4.519v27.115a4.51,4.51,0,0,0,4.52,4.52h27.115a4.51,4.51,0,0,0,4.52-4.52V260.519a4.51,4.51,0,0,0-4.52-4.52Zm54.23,0a4.51,4.51,0,0,0-4.52,4.519v27.115a4.131,4.131,0,0,0,1.688,3.5c.1.082.192.177.3.25h0c.084.056.18.1.268.146a4.467,4.467,0,0,0,1.148.469c.068.017.13.048.2.063h0a4.578,4.578,0,0,0,.912.092h27.115a4.564,4.564,0,0,0,.912-.092,4.509,4.509,0,0,0,3.607-4.428V260.519a4.564,4.564,0,0,0-.092-.912s0,0,0,0a4.494,4.494,0,0,0-.262-.848s0,0,0,0a4.5,4.5,0,0,0-.416-.766s0,0,0,0a4.511,4.511,0,0,0-3.75-1.988Zm54.23,0a4.51,4.51,0,0,0-4.52,4.519v27.115a4.51,4.51,0,0,0,4.52,4.52h27.115a4.51,4.51,0,0,0,4.52-4.52V260.519a4.51,4.51,0,0,0-4.52-4.52Zm54.23,0a4.51,4.51,0,0,0-4.52,4.519v27.115a4.51,4.51,0,0,0,4.52,4.52H305.7a4.51,4.51,0,0,0,4.52-4.52V260.519A4.51,4.51,0,0,0,305.7,256Zm54.23,0a4.508,4.508,0,0,0-4.518,4.519v27.115a4.508,4.508,0,0,0,4.518,4.52h27.115a4.51,4.51,0,0,0,4.52-4.52V260.519a4.51,4.51,0,0,0-4.52-4.52ZM61.662,310.23a4.51,4.51,0,0,0-4.52,4.52v27.115a4.51,4.51,0,0,0,4.52,4.52H88.777a4.51,4.51,0,0,0,4.52-4.52V314.749a4.51,4.51,0,0,0-4.52-4.52Zm307.31,0a4.51,4.51,0,0,0-4.52,4.52v27.115a4.51,4.51,0,0,0,4.52,4.52h27.115a4.51,4.51,0,0,0,4.52-4.52V314.749a4.51,4.51,0,0,0-4.52-4.52Zm54.23,0a4.51,4.51,0,0,0-4.52,4.52v27.115a4.51,4.51,0,0,0,4.52,4.52h27.115a4.51,4.51,0,0,0,4.52-4.52V314.749a4.51,4.51,0,0,0-4.52-4.52Z" fill="#737680"/><path d="M62.576,147.54c-3,0-5.422,2.014-5.422,4.518v27.115c0,2.5,2.417,4.52,5.422,4.52h43.385c3,0,5.424-2.016,5.424-4.52V152.058c0-2.5-2.419-4.518-5.424-4.518Zm342.56,0a4.508,4.508,0,0,0-4.52,4.518v27.115a4.51,4.51,0,0,0,4.52,4.52h13.557v49.713a4.508,4.508,0,0,0,4.52,4.518h27.115a4.508,4.508,0,0,0,4.52-4.518V152.057a4.508,4.508,0,0,0-4.52-4.518H405.136ZM61.676,201.77a4.51,4.51,0,0,0-4.52,4.52V233.4a4.508,4.508,0,0,0,4.52,4.518h63.268a4.508,4.508,0,0,0,4.52-4.518V206.289a4.51,4.51,0,0,0-4.52-4.52ZM387.056,256a4.51,4.51,0,0,0-4.52,4.519v27.115a4.51,4.51,0,0,0,4.52,4.52h63.268a4.51,4.51,0,0,0,4.52-4.52V260.519a4.51,4.51,0,0,0-4.52-4.52Zm-262.12,54.23a4.508,4.508,0,0,0-4.518,4.52v27.115a4.508,4.508,0,0,0,4.518,4.52h207.88a4.51,4.51,0,0,0,4.52-4.52V314.749a4.51,4.51,0,0,0-4.52-4.52Z" fill="#737680"/><path d="M57.154,120.42A36.075,36.075,0,0,0,21,156.574v10A36.075,36.075,0,0,1,57.154,130.42h397.69A36.075,36.075,0,0,1,491,166.574v-10a36.075,36.075,0,0,0-36.154-36.154Z" fill="#fff" opacity="0.2"/><path d="M21,346.38v9.039a36.074,36.074,0,0,0,36.154,36.152h397.69A36.074,36.074,0,0,0,491,355.419V346.38a36.075,36.075,0,0,1-36.154,36.154H57.154A36.075,36.075,0,0,1,21,346.38Z" opacity="0.1"/><path d="M133.98,147.54a4.511,4.511,0,0,0-4.52,4.518v27.115a4.564,4.564,0,0,0,.092.912c.019.092.058.174.082.264a3.795,3.795,0,0,0,.6,1.354c.073.109.168.2.25.3a4.13,4.13,0,0,0,3.5,1.687H161.1a4.51,4.51,0,0,0,4.52-4.52V152.058a4.508,4.508,0,0,0-4.52-4.518Zm54.23,0a4.508,4.508,0,0,0-4.52,4.518v27.115a4.51,4.51,0,0,0,4.52,4.52h27.115a4.51,4.51,0,0,0,4.52-4.52V152.058a4.508,4.508,0,0,0-4.52-4.518Zm54.23,0a4.507,4.507,0,0,0-4.518,4.518v27.115a4.508,4.508,0,0,0,4.518,4.52h27.117a4.508,4.508,0,0,0,4.518-4.52V152.058a4.507,4.507,0,0,0-4.518-4.518Zm54.232,0a4.508,4.508,0,0,0-4.52,4.518v27.115a4.51,4.51,0,0,0,4.52,4.52h27.115a4.51,4.51,0,0,0,4.52-4.52V152.058a4.508,4.508,0,0,0-4.52-4.518Zm54.23,0a4.508,4.508,0,0,0-4.52,4.518v27.115a4.51,4.51,0,0,0,4.52,4.52h27.115a4.51,4.51,0,0,0,4.52-4.52V152.058a4.508,4.508,0,0,0-4.52-4.518Zm-198.85,54.23a4.51,4.51,0,0,0-4.52,4.52V233.4a4.508,4.508,0,0,0,4.52,4.518h27.115a4.507,4.507,0,0,0,4.518-4.518V206.289a4.508,4.508,0,0,0-4.518-4.52Zm54.23,0a4.51,4.51,0,0,0-4.52,4.52V233.4a4.508,4.508,0,0,0,4.52,4.518H233.4a4.508,4.508,0,0,0,4.52-4.518V206.289a4.51,4.51,0,0,0-4.52-4.52Zm54.23,0a4.51,4.51,0,0,0-4.52,4.52V233.4a4.508,4.508,0,0,0,4.52,4.518h27.115a4.508,4.508,0,0,0,4.52-4.518V206.289a4.51,4.51,0,0,0-4.52-4.52Zm54.23,0a4.51,4.51,0,0,0-4.52,4.52V233.4a4.508,4.508,0,0,0,4.52,4.518h27.115a4.508,4.508,0,0,0,4.52-4.518V206.289a4.51,4.51,0,0,0-4.52-4.52Zm54.23,0a4.51,4.51,0,0,0-4.52,4.52V233.4a4.508,4.508,0,0,0,4.52,4.518h27.115a4.508,4.508,0,0,0,4.52-4.518V206.289a4.51,4.51,0,0,0-4.52-4.52ZM61.662,256a4.51,4.51,0,0,0-4.52,4.519v27.115a4.51,4.51,0,0,0,4.52,4.52H88.777a4.51,4.51,0,0,0,4.52-4.52V260.519a4.51,4.51,0,0,0-4.52-4.52Zm54.23,0a4.51,4.51,0,0,0-4.52,4.519v27.115a4.51,4.51,0,0,0,4.52,4.52h27.115a4.51,4.51,0,0,0,4.52-4.52V260.519a4.51,4.51,0,0,0-4.52-4.52Zm54.23,0a4.51,4.51,0,0,0-4.52,4.519v27.115a4.131,4.131,0,0,0,1.688,3.5c.1.082.192.177.3.25h0c.084.056.18.1.268.146a4.467,4.467,0,0,0,1.148.469c.068.017.13.048.2.063h0a4.578,4.578,0,0,0,.912.092h27.115a4.564,4.564,0,0,0,.912-.092,4.509,4.509,0,0,0,3.607-4.428V260.519a4.564,4.564,0,0,0-.092-.912s0,0,0,0a4.494,4.494,0,0,0-.262-.848s0,0,0,0a4.5,4.5,0,0,0-.416-.766s0,0,0,0a4.511,4.511,0,0,0-3.75-1.988Zm54.23,0a4.51,4.51,0,0,0-4.52,4.519v27.115a4.51,4.51,0,0,0,4.52,4.52h27.115a4.51,4.51,0,0,0,4.52-4.52V260.519a4.51,4.51,0,0,0-4.52-4.52Zm54.23,0a4.51,4.51,0,0,0-4.52,4.519v27.115a4.51,4.51,0,0,0,4.52,4.52H305.7a4.51,4.51,0,0,0,4.52-4.52V260.519A4.51,4.51,0,0,0,305.7,256Zm54.23,0a4.508,4.508,0,0,0-4.518,4.519v27.115a4.508,4.508,0,0,0,4.518,4.52h27.115a4.51,4.51,0,0,0,4.52-4.52V260.519a4.51,4.51,0,0,0-4.52-4.52ZM61.662,310.23a4.51,4.51,0,0,0-4.52,4.52v27.115a4.51,4.51,0,0,0,4.52,4.52H88.777a4.51,4.51,0,0,0,4.52-4.52V314.749a4.51,4.51,0,0,0-4.52-4.52Zm307.31,0a4.51,4.51,0,0,0-4.52,4.52v27.115a4.51,4.51,0,0,0,4.52,4.52h27.115a4.51,4.51,0,0,0,4.52-4.52V314.749a4.51,4.51,0,0,0-4.52-4.52Zm54.23,0a4.51,4.51,0,0,0-4.52,4.52v27.115a4.51,4.51,0,0,0,4.52,4.52h27.115a4.51,4.51,0,0,0,4.52-4.52V314.749a4.51,4.51,0,0,0-4.52-4.52Z" fill="#fff" opacity="0.3"/></g></g></svg>
