<?xml version="1.0" standalone="no"?>
<!DOCTYPE svg PUBLIC "-//W3C//DTD SVG 20010904//EN"
  "http://www.w3.org/TR/2001/REC-SVG-20010904/DTD/svg10.dtd">
<svg version="1.0" xmlns="http://www.w3.org/2000/svg"
     width="40" height="40" viewBox="0 0 512.000000 512.000000"
     preserveAspectRatio="xMidYMid meet">

  <g transform="translate(0.000000,512.000000) scale(0.100000,-0.100000)"
     fill="#ffffff" stroke="none">
    <path d="M455 5051 c-201 -57 -368 -228 -419 -427 -20 -79 -20 -219 0 -298 42
-162 165 -312 315 -384 98 -47 162 -62 264 -62 163 0 305 59 420 175 116 115
175 257 175 420 0 102 -15 166 -62 264 -73 152 -227 277 -389 316 -85 20 -228
18 -304 -4z"/>
    <path d="M2400 5054 c-100 -26 -180 -74 -266 -159 -123 -121 -178 -251 -178
-420 0 -164 55 -296 174 -416 129 -131 269 -185 455 -176 125 6 202 32 304
101 218 149 311 422 231 678 -26 83 -104 202 -173 263 -60 54 -189 118 -265
134 -73 15 -216 13 -282 -5z"/>
    <path d="M4405 5063 c-215 -48 -390 -207 -457 -413 -31 -99 -29 -260 5 -358
37 -105 82 -175 163 -251 294 -275 765 -189 938 172 66 135 81 251 52 387 -28
130 -108 260 -209 340 -63 51 -174 104 -245 119 -51 11 -206 13 -247 4z"/>
    <path d="M535 3149 c-178 -19 -328 -109 -429 -256 -205 -300 -97 -707 231
-872 164 -82 350 -82 523 1 156 75 280 228 321 398 19 78 16 222 -5 294 -85
287 -350 467 -641 435z"/>
    <path d="M2457 3148 c-194 -23 -370 -151 -457 -333 -66 -136 -77 -300 -30
-448 41 -132 158 -269 289 -341 117 -63 286 -82 425 -46 110 28 190 74 271
155 121 120 176 253 176 426 0 360 -311 631 -674 587z"/>
    <path d="M4428 3148 c-136 -16 -264 -83 -360 -187 -249 -268 -198 -696 107
-900 238 -159 553 -127 755 78 114 115 170 253 170 418 0 158 -49 285 -152
398 -137 149 -320 217 -520 193z"/>
    <path d="M468 1224 c-257 -62 -448 -303 -450 -569 -2 -178 50 -306 176 -430
123 -121 250 -175 414 -175 109 0 171 14 270 62 61 29 101 57 151 106 333 329
180 891 -274 1007 -72 18 -210 18 -287 -1z"/>
    <path d="M2410 1225 c-157 -39 -287 -135 -373 -277 -206 -340 -18 -786 373
-884 88 -22 251 -15 337 16 142 50 268 161 334 294 65 133 82 256 54 389 -37
174 -150 327 -306 411 -109 60 -293 82 -419 51z"/>
    <path d="M4362 1220 c-167 -45 -304 -159 -379 -315 -83 -176 -81 -352 6 -531
67 -135 193 -245 339 -296 56 -19 87 -23 192 -23 105 0 136 4 192 23 178 62
322 212 381 397 30 96 30 241 0 340 -57 183 -203 334 -383 396 -94 32 -249 36
-348 9z"/>
  </g>
</svg>
